<?xml version="1.0" standalone="no"?>
<!DOCTYPE svg PUBLIC "-//W3C//DTD SVG 20010904//EN"
 "http://www.w3.org/TR/2001/REC-SVG-20010904/DTD/svg10.dtd">
<svg version="1.0" xmlns="http://www.w3.org/2000/svg"
 width="88.000000pt" height="88.000000pt" viewBox="0 0 88.000000 88.000000"
 preserveAspectRatio="xMidYMid meet">

<g transform="translate(0.000000,88.000000) scale(0.100000,-0.100000)"
fill="#000000" stroke="none">
<path d="M468 666 c-53 -14 -77 -29 -142 -85 -47 -41 -83 -63 -121 -75 -16 -5
-25 1 -39 24 -17 30 -17 31 5 48 25 21 20 56 -12 73 -34 18 -52 4 -46 -36 5
-31 3 -35 -16 -36 -21 -1 -20 -1 3 -8 14 -4 41 -32 68 -71 63 -94 148 -176
216 -210 33 -17 65 -30 72 -30 12 0 12 -34 -1 -77 -3 -8 -33 -13 -87 -16 -46
-1 0 -3 102 -3 102 -1 160 2 130 5 l-55 6 -3 46 c-3 44 -2 47 27 52 45 9 97
61 122 123 19 44 29 56 53 63 l31 8 -28 13 -28 13 33 35 33 34 -42 -7 c-35 -5
-43 -4 -43 8 0 21 -47 75 -79 91 -41 21 -102 26 -153 12z m152 -29 c52 -34 75
-82 75 -152 0 -119 -87 -208 -204 -208 -77 0 -129 29 -225 125 l-78 80 48 22
c27 13 74 44 104 68 80 66 126 87 191 88 42 0 64 -6 89 -23z m-456 -19 c8 -13
7 -21 -2 -30 -14 -14 -26 -4 -37 30 -6 19 -4 23 10 20 10 -1 23 -11 29 -20z
m576 -82 c0 -2 -7 -9 -15 -16 -12 -10 -15 -10 -15 4 0 9 7 16 15 16 8 0 15 -2
15 -4z m-216 -292 c3 -9 6 -29 6 -45 0 -26 -3 -29 -31 -29 -30 0 -31 2 -25 31
3 17 6 38 6 45 0 19 36 18 44 -2z"/>
<path d="M492 568 c-7 -7 -12 -18 -12 -25 0 -8 7 -6 20 7 15 15 27 19 47 14
18 -5 24 -4 19 5 -9 15 -59 14 -74 -1z"/>
</g>
</svg>
